# xmcd
#
# Track frame offsets:
#	150
#	14321
#	31220
#	46727
#	65018
#	75477
#	86066
#	103735
#	116786
#	133138
#	146065
#	162036
#
# Disc length: 2312 seconds
#
# Revision: 1
# Processed by: cddbd v1.5.1PL0 Copyright (c) Steve Scherf et al.
# Submitted via: audiograbber 1.82.02
#
DISCID=9d09060c
DTITLE=Terry Gordon - The Ausie Larrikin
DYEAR=1900
DGENRE=Country
TTITLE0=He Drinks Tequila
TTITLE1=Look At Us
TTITLE2=I Just Want To Dance
TTITLE3=Commitment
TTITLE4=Ain't Love A Lot Like That
TTITLE5=Who's Sorry Now
TTITLE6=That Just About Does It
TTITLE7=Jones On The Jukebox
TTITLE8=Old Country
TTITLE9=Under Your Spell Again
TTITLE10=She Broke Her Promise
TTITLE11=Some Broken Hearts Never Mend
EXTD=
EXTT0=
EXTT1=
EXTT2=
EXTT3=
EXTT4=
EXTT5=
EXTT6=
EXTT7=
EXTT8=
EXTT9=
EXTT10=
EXTT11=
PLAYORDER=
